<?xml version="1.0" encoding="UTF-8" ?>
<!DOCTYPE svg PUBLIC "-//W3C//DTD SVG 1.1//EN" "http://www.w3.org/Graphics/SVG/1.1/DTD/svg11.dtd">
<svg width="865pt" height="531pt" viewBox="0 0 865 531" version="1.1" xmlns="http://www.w3.org/2000/svg">
<g id="#ffffffff">
<path fill="#ffffff" opacity="1.00" d=" M 124.85 0.88 C 125.37 0.83 126.40 0.72 126.92 0.67 C 132.01 5.05 136.02 10.52 141.49 14.51 C 144.50 18.34 148.55 22.96 153.95 22.03 C 155.84 22.55 156.79 20.81 157.36 19.32 C 159.09 14.86 160.20 10.16 160.16 5.36 C 160.52 4.96 161.25 4.16 161.61 3.76 C 164.05 8.48 164.83 13.83 167.63 18.38 C 168.48 22.19 170.62 25.39 172.06 28.96 C 174.22 32.14 176.25 35.72 180.02 37.20 C 183.14 36.00 185.06 33.32 186.71 30.56 C 186.97 28.67 187.10 25.36 189.87 25.97 C 191.60 27.62 191.74 30.32 192.34 32.54 C 194.16 34.83 194.93 37.86 197.21 39.80 C 198.40 41.10 200.26 41.15 201.79 41.85 C 204.30 39.61 206.22 36.95 207.17 33.69 C 210.16 35.39 208.57 39.06 209.09 41.83 C 210.71 44.71 212.41 48.06 215.66 49.35 C 223.68 52.50 232.43 50.15 240.75 51.27 C 243.53 52.37 246.62 51.56 249.39 52.63 C 251.74 53.38 254.29 52.68 256.67 53.27 C 260.35 54.15 263.99 55.20 267.81 55.15 C 274.63 57.02 281.71 58.03 288.22 60.87 C 294.50 61.01 299.98 64.41 305.88 66.12 C 309.11 67.06 312.14 68.53 315.29 69.71 C 320.63 72.09 326.62 73.19 331.44 76.63 C 336.56 79.15 342.39 77.52 347.86 78.04 C 349.48 78.77 350.99 79.81 352.78 80.13 C 359.01 81.69 363.17 88.45 369.97 88.03 C 376.21 88.41 381.72 91.67 387.64 93.35 C 390.00 94.11 391.48 96.21 393.58 97.41 C 398.37 100.33 402.86 103.59 407.82 106.22 C 418.21 111.39 430.05 112.51 440.63 117.22 C 444.50 120.03 448.71 122.87 451.05 127.18 C 451.86 130.58 452.30 134.05 452.76 137.51 C 453.95 145.99 450.59 154.17 448.00 162.02 C 444.93 167.42 443.80 174.04 439.09 178.40 C 439.03 179.47 438.97 180.55 438.93 181.62 C 434.97 185.02 433.64 190.41 430.27 194.29 C 428.03 197.21 426.28 200.49 423.67 203.13 C 422.62 200.14 419.08 201.68 417.11 199.94 C 426.01 186.45 434.09 172.38 440.55 157.55 C 441.85 153.39 444.20 149.38 443.89 144.89 C 436.85 156.89 431.77 170.10 423.17 181.15 C 418.01 187.04 413.13 193.18 407.85 198.97 C 405.75 198.81 403.87 197.58 401.84 197.08 C 398.49 196.76 394.98 197.55 391.80 196.13 C 386.95 195.93 382.05 195.83 377.21 196.18 C 372.90 197.86 368.12 196.18 363.81 197.97 C 364.20 195.41 366.54 193.89 367.73 191.72 C 373.47 182.26 378.11 172.19 383.61 162.59 C 388.19 155.51 392.44 148.21 397.25 141.28 C 403.56 134.16 410.95 127.33 420.16 124.30 C 425.53 123.75 430.94 123.31 436.31 123.97 C 434.27 120.82 430.34 120.20 427.16 118.76 C 416.31 114.52 404.21 115.37 393.16 118.27 C 380.17 122.15 371.46 133.11 362.24 142.30 C 358.35 147.37 353.68 151.78 349.92 156.96 C 346.50 161.83 342.53 166.31 339.46 171.43 C 336.54 175.52 334.87 180.76 336.14 185.75 C 338.24 189.25 342.91 189.78 345.38 192.95 C 339.75 193.74 333.90 190.94 330.30 186.68 C 327.06 181.23 329.86 174.69 332.67 169.66 C 339.42 158.40 347.20 147.72 356.19 138.17 C 358.14 134.89 361.12 132.46 363.75 129.75 C 368.10 125.20 372.84 120.93 378.24 117.72 C 375.91 114.57 371.40 116.45 368.05 116.03 C 362.86 117.43 357.44 118.29 352.48 120.47 C 346.53 124.26 339.65 126.53 334.59 131.59 C 331.66 132.67 331.12 136.18 328.37 137.41 C 325.69 139.45 324.63 143.90 320.79 144.23 C 322.75 136.95 327.20 130.68 331.99 124.99 C 333.84 121.01 339.07 120.16 340.22 115.79 C 335.04 117.95 329.52 118.33 323.97 118.02 C 318.19 118.59 312.17 115.24 309.99 109.81 C 309.74 105.36 311.00 100.91 312.99 96.96 C 312.83 95.18 310.29 94.89 309.03 93.96 C 306.19 92.04 302.60 93.79 299.60 92.37 C 294.88 91.41 289.97 92.44 285.20 91.87 C 280.07 89.89 274.58 91.39 269.41 92.31 C 266.69 93.61 264.00 94.96 261.33 96.35 C 259.66 98.36 257.56 99.91 255.73 101.75 C 247.12 111.87 243.79 125.15 241.99 137.99 C 241.86 141.61 241.89 145.24 242.75 148.77 C 242.42 148.74 241.76 148.67 241.43 148.64 C 239.88 146.38 239.63 143.55 239.04 140.94 C 238.95 134.31 238.99 127.68 239.02 121.05 C 240.87 112.58 244.72 104.65 249.30 97.31 C 251.80 91.51 258.45 89.59 262.36 85.03 C 256.28 85.00 250.20 84.93 244.14 85.05 C 241.63 86.40 238.95 87.14 236.08 87.05 C 222.19 90.05 208.28 97.24 200.79 109.80 C 198.31 114.80 196.55 120.35 196.99 126.00 C 197.29 130.79 196.35 135.74 197.57 140.43 C 198.67 148.81 201.64 156.90 205.66 164.34 C 207.67 169.04 211.38 172.66 213.97 177.01 C 221.96 188.82 233.88 196.97 245.77 204.45 C 245.89 204.87 246.12 205.72 246.24 206.15 C 242.34 206.01 239.12 203.58 235.45 202.62 C 231.53 199.64 226.88 198.04 222.98 195.02 C 217.26 190.46 212.05 185.26 207.41 179.60 C 206.65 178.35 205.83 177.02 204.30 176.67 C 201.01 169.82 195.55 164.25 192.64 157.20 C 192.22 157.09 191.39 156.87 190.97 156.76 C 191.05 158.37 190.83 160.04 191.36 161.60 C 192.54 164.84 191.65 168.55 193.32 171.65 C 194.54 174.21 195.42 176.91 196.37 179.57 C 198.36 182.59 200.41 185.58 202.38 188.62 C 204.76 191.86 208.38 194.06 210.38 197.61 C 211.17 199.17 212.88 199.79 214.19 200.81 C 216.14 203.50 217.69 206.63 220.76 208.23 C 222.66 211.26 224.66 214.22 227.26 216.73 C 229.94 219.11 231.32 222.67 234.52 224.49 C 237.30 228.98 241.99 231.63 245.63 235.30 C 247.90 237.58 251.14 238.36 253.59 240.40 C 258.37 243.97 264.55 243.64 270.06 244.97 C 275.15 245.10 280.25 244.91 285.34 245.02 C 283.97 247.93 280.70 246.74 278.15 247.05 C 276.09 247.69 274.32 249.38 272.03 249.02 C 264.81 248.60 257.35 250.08 250.41 247.58 C 236.89 243.30 226.89 232.40 218.74 221.29 C 211.32 213.69 203.69 206.30 196.25 198.72 C 190.50 190.53 184.67 182.19 181.28 172.72 C 178.36 171.42 174.63 171.55 171.43 170.58 C 167.34 169.16 162.81 170.95 158.80 169.13 C 154.95 168.71 151.05 169.29 147.20 168.87 C 145.83 168.46 144.47 167.88 143.01 167.99 C 131.69 168.03 120.38 167.95 109.06 168.03 C 100.70 170.08 91.48 169.10 83.56 172.94 C 95.97 173.18 108.40 172.77 120.81 173.13 C 124.42 174.83 128.58 173.16 132.20 174.88 C 139.20 174.39 145.83 176.99 152.79 177.15 C 155.04 178.07 157.45 177.97 159.83 178.13 C 163.83 179.04 167.49 181.17 171.65 181.28 C 171.80 181.70 172.08 182.55 172.23 182.97 C 167.76 182.74 163.08 183.76 158.80 182.13 C 155.14 181.91 151.32 181.57 147.81 182.87 C 143.62 183.30 139.39 182.70 135.20 183.13 C 131.20 184.91 126.65 183.07 122.61 184.63 C 119.37 185.99 114.67 183.26 112.66 186.98 C 122.42 187.08 132.18 186.89 141.93 187.05 C 146.06 188.67 150.51 187.53 154.76 188.27 C 157.66 189.43 160.80 188.77 163.81 189.13 C 168.15 190.72 172.95 189.41 177.29 191.28 C 175.55 194.14 171.99 192.38 169.36 193.36 C 164.60 194.93 159.57 195.30 154.80 196.85 C 146.66 196.93 139.22 201.35 131.00 201.07 C 131.00 201.55 130.99 202.51 130.99 203.00 C 139.65 203.00 148.30 202.96 156.95 202.96 C 165.32 200.64 174.24 203.38 182.58 200.83 C 182.16 202.52 180.86 203.68 179.73 204.91 C 176.15 204.55 173.42 207.24 170.13 208.10 C 166.38 209.24 162.90 211.08 159.13 212.14 C 155.59 213.33 151.61 213.55 148.56 215.92 C 150.90 215.98 153.34 216.32 155.61 215.63 C 158.42 214.43 161.59 215.52 164.43 214.42 C 172.75 212.72 181.40 211.80 189.15 208.06 C 189.92 208.03 191.44 207.97 192.20 207.94 C 192.33 210.71 189.22 211.23 187.33 212.33 C 183.86 213.71 181.09 216.47 177.41 217.35 C 174.19 220.89 169.05 220.81 165.00 223.01 C 157.41 225.83 149.20 226.46 141.16 225.91 C 137.68 224.68 134.11 223.67 130.67 222.33 C 123.27 218.08 116.26 212.35 112.14 204.80 C 108.87 201.41 105.34 198.22 102.72 194.28 C 98.39 191.36 94.90 187.20 90.29 184.73 C 87.24 183.98 84.61 181.36 81.33 182.06 C 74.30 191.08 66.14 199.21 59.72 208.70 C 57.59 211.03 56.79 214.27 54.27 216.30 C 48.85 223.53 44.75 231.62 40.63 239.64 C 38.82 242.69 37.77 246.33 34.97 248.68 C 35.70 242.26 39.31 236.58 41.60 230.61 C 42.86 226.74 45.75 223.55 46.40 219.48 C 50.49 213.68 52.92 206.91 57.21 201.21 C 61.30 193.86 65.74 186.52 71.82 180.64 C 71.90 180.00 72.07 178.72 72.16 178.09 C 71.43 178.05 69.99 177.99 69.26 177.95 C 68.22 176.67 66.06 175.25 67.25 173.37 C 68.45 169.60 72.38 168.18 75.61 166.60 C 79.64 164.42 84.49 164.03 88.21 161.23 C 93.45 156.49 97.83 150.76 103.70 146.75 C 107.16 143.14 111.21 140.21 115.16 137.18 C 121.84 130.51 130.75 126.73 138.28 121.24 C 146.06 115.67 155.20 112.29 163.38 107.38 C 167.63 106.27 171.10 103.13 175.54 102.67 C 177.43 101.27 179.48 99.85 181.94 99.97 C 185.38 99.92 187.51 96.92 189.76 94.76 C 194.36 90.36 198.41 85.23 204.00 82.02 C 206.13 80.82 208.55 80.06 210.32 78.30 C 208.96 78.00 207.60 77.73 206.28 77.32 C 205.14 77.86 204.10 78.69 202.84 78.91 C 197.89 79.12 192.97 79.97 188.17 81.16 C 185.54 81.82 183.08 83.17 180.31 83.12 C 179.90 83.56 179.09 84.44 178.69 84.88 C 170.07 85.85 162.66 90.99 154.44 93.38 C 150.88 96.05 146.44 97.16 142.97 99.97 C 131.49 105.19 121.85 113.44 111.40 120.33 C 104.83 125.36 98.51 130.80 92.43 136.37 C 90.87 139.44 87.06 140.53 85.65 143.66 C 83.62 144.18 83.02 146.33 81.74 147.72 C 77.77 152.08 72.99 155.73 69.72 160.69 C 66.40 163.50 65.25 168.20 61.41 170.43 C 57.48 177.59 51.29 183.27 47.58 190.59 C 40.25 201.85 33.76 213.71 29.47 226.46 C 25.93 233.67 25.65 241.98 22.11 249.18 C 21.85 256.96 18.07 264.12 17.91 271.91 C 16.44 278.17 14.89 284.46 14.94 290.93 C 13.84 296.18 12.75 301.43 12.87 306.83 C 11.23 311.38 12.30 316.29 12.01 321.01 C 12.20 323.10 10.80 324.90 10.99 326.99 C 11.03 341.33 10.94 355.66 11.04 369.99 C 11.61 373.95 12.16 377.92 12.07 381.94 C 13.37 385.44 12.84 389.16 13.12 392.80 C 14.42 395.78 14.01 399.08 13.90 402.23 C 11.24 399.88 12.80 395.94 10.26 393.53 C 10.08 387.93 7.63 382.64 7.98 377.00 C 7.79 374.20 6.78 371.53 6.13 368.82 C 5.59 364.82 6.74 360.63 5.15 356.79 C 4.95 354.43 5.09 352.02 4.14 349.80 C 3.60 345.48 4.71 340.99 3.17 336.81 C 2.98 326.21 2.84 315.57 3.15 304.97 C 4.74 298.15 3.53 291.11 4.19 284.22 C 5.25 281.65 4.88 278.88 5.13 276.19 C 6.28 273.59 5.96 270.75 6.01 267.99 C 6.65 263.01 8.09 258.14 8.08 253.08 C 10.28 242.78 11.50 232.21 15.22 222.27 C 17.67 213.30 17.94 203.97 19.96 194.94 C 20.07 188.65 19.98 182.37 19.98 176.08 C 24.60 174.82 28.51 171.50 29.96 166.87 C 30.30 161.86 29.46 156.77 28.04 152.05 C 31.44 150.20 35.72 148.91 36.99 144.83 C 37.22 139.75 35.80 134.72 34.10 129.97 C 34.13 128.70 35.59 128.11 36.23 127.15 C 40.71 128.11 45.52 125.49 47.38 121.36 C 48.48 119.43 47.85 117.12 48.01 115.02 C 47.82 111.44 48.67 107.62 46.86 104.33 C 47.93 103.93 48.97 103.48 49.99 102.97 C 53.54 105.46 58.79 103.29 60.85 99.86 C 62.66 98.11 61.62 95.42 62.31 93.25 C 63.63 89.39 62.66 85.28 63.09 81.30 C 64.58 79.02 67.61 80.43 69.85 79.90 C 72.67 78.90 75.98 78.36 77.63 75.55 C 78.08 73.67 78.00 71.67 78.84 69.89 C 77.03 66.55 78.97 62.49 77.05 59.16 C 77.52 58.83 78.45 58.15 78.92 57.82 C 82.62 60.50 87.20 60.88 91.11 63.04 C 93.49 62.58 95.49 60.88 97.99 60.79 C 98.00 60.17 98.01 58.92 98.02 58.29 C 98.52 57.89 99.51 57.09 100.00 56.69 C 100.85 47.82 98.07 39.29 95.83 30.86 C 97.62 30.63 99.11 31.51 100.42 32.61 C 103.92 34.52 107.48 36.35 111.13 37.96 C 114.65 38.10 118.17 37.96 121.69 37.99 C 127.94 32.55 128.47 23.68 127.99 15.98 C 127.05 10.93 126.61 5.77 124.85 0.88 M 136.02 21.60 C 135.35 25.27 137.95 28.37 138.05 31.96 C 138.11 33.84 139.33 35.38 139.88 37.13 C 141.50 41.39 142.35 45.88 143.86 50.18 C 143.69 54.22 145.78 57.82 146.16 61.77 C 146.75 63.97 148.17 65.90 148.30 68.25 C 149.99 67.73 151.72 67.07 152.94 65.72 C 153.29 63.30 151.67 61.17 151.12 58.89 C 149.83 55.72 149.89 51.98 147.78 49.17 C 145.01 41.09 141.91 32.86 137.47 25.44 C 136.91 24.19 137.14 22.55 136.02 21.60 M 167.19 30.24 C 167.10 30.68 166.90 31.57 166.81 32.02 C 167.75 34.72 169.33 29.74 167.19 30.24 M 168.79 35.76 C 169.57 38.87 170.79 41.83 172.41 44.60 C 172.92 48.42 174.87 51.87 175.23 55.72 C 176.03 56.68 177.12 57.31 178.14 58.01 C 178.40 55.16 177.03 52.56 176.00 50.00 C 174.59 47.24 174.39 43.94 172.32 41.53 C 171.83 39.33 171.71 35.92 168.79 35.76 M 106.77 46.67 C 107.35 49.54 109.02 52.03 110.62 54.44 C 111.69 57.88 112.98 61.22 114.65 64.42 C 115.33 68.57 117.59 72.22 118.78 76.23 C 119.37 79.28 119.72 82.47 121.14 85.27 C 122.42 84.09 123.71 82.91 124.89 81.62 C 125.57 78.43 123.50 75.54 122.14 72.85 C 119.35 65.15 114.55 58.51 110.42 51.54 C 110.02 49.40 108.64 47.72 106.77 46.67 M 192.17 47.23 L 192.17 47.89 L 192.83 47.89 L 192.82 47.23 L 192.17 47.23 M 192.09 50.30 C 191.22 51.36 192.19 53.91 193.73 52.89 C 194.72 51.93 193.35 49.61 192.09 50.30 M 87.78 75.69 C 88.18 78.64 90.79 80.58 91.62 83.38 C 93.76 89.41 96.39 95.22 99.03 101.02 C 100.08 100.50 101.16 100.02 102.25 99.59 C 101.44 97.56 100.01 95.85 99.15 93.85 C 98.23 90.41 95.32 87.96 94.62 84.42 C 91.89 81.82 91.24 77.57 87.78 75.69 M 328.31 95.17 C 326.83 96.77 325.25 98.29 323.39 99.43 C 321.50 101.43 322.03 104.25 321.99 106.74 C 323.83 108.70 326.41 109.68 329.04 109.98 C 332.95 110.09 337.55 110.68 340.31 107.22 C 344.25 107.19 346.08 103.11 347.08 99.88 C 345.75 96.61 342.81 93.63 339.03 93.97 C 335.35 93.53 331.88 94.60 328.31 95.17 M 71.96 95.66 C 71.42 98.89 74.30 100.92 75.70 103.47 C 76.70 108.56 79.48 113.11 81.34 117.95 C 83.64 118.73 82.92 115.49 83.77 114.20 C 80.68 110.68 80.04 105.62 76.22 102.72 C 75.89 99.89 73.94 97.57 71.96 95.66 M 164.60 121.60 C 160.76 122.85 157.27 124.91 153.66 126.67 C 147.54 129.69 141.30 132.68 136.00 136.99 C 132.18 138.63 128.91 141.19 125.40 143.38 C 123.38 144.71 122.11 147.33 119.39 147.22 C 119.19 147.54 118.78 148.19 118.58 148.52 C 115.34 150.58 113.23 153.98 109.82 155.79 C 108.26 156.95 105.92 157.64 105.70 159.88 C 108.11 159.53 110.50 158.92 112.96 158.99 C 125.98 159.01 138.99 158.99 152.01 158.99 C 157.96 159.82 163.86 161.35 169.95 161.03 C 172.30 161.54 174.61 162.31 177.08 162.05 C 176.85 155.93 174.72 150.05 174.00 144.01 C 174.08 138.74 173.81 133.46 174.13 128.20 C 175.52 124.89 174.47 121.15 176.18 117.91 C 171.97 117.68 168.31 120.00 164.60 121.60 Z" />
<path fill="#ffffff" opacity="1.00" d=" M 328.72 101.93 C 329.47 97.96 333.98 97.15 337.20 96.06 C 340.33 95.11 342.56 97.83 344.96 99.32 C 345.35 102.87 342.24 106.24 338.81 106.87 C 336.63 107.25 334.49 108.46 332.26 107.79 C 331.75 105.57 334.78 104.49 334.17 102.05 C 332.35 102.01 330.53 101.99 328.72 101.93 Z" />
<path fill="#ffffff" opacity="1.00" d=" M 255.79 179.02 C 257.08 179.01 258.38 179.00 259.67 179.00 C 260.08 179.47 260.89 180.43 261.29 180.90 C 264.59 180.68 267.29 182.86 270.39 183.61 C 273.04 184.16 275.60 185.04 278.16 185.90 C 280.86 186.10 283.65 185.74 286.22 186.82 C 293.73 187.26 301.28 186.86 308.81 187.00 C 310.78 190.96 314.09 194.04 316.02 198.00 C 320.13 203.78 325.14 208.84 330.27 213.75 C 335.23 217.39 340.66 220.27 346.23 222.84 C 350.61 224.12 354.56 226.57 358.40 228.99 C 353.36 229.67 349.15 226.09 344.32 225.90 C 343.91 225.45 343.09 224.55 342.68 224.09 C 341.04 224.09 339.39 223.92 338.00 222.98 C 330.93 219.76 324.47 215.40 318.28 210.74 C 315.05 207.63 311.92 204.40 308.74 201.24 C 307.00 199.63 306.35 196.95 304.05 195.95 C 301.45 194.17 298.19 195.56 295.37 194.66 C 292.04 193.61 288.66 192.77 285.15 192.89 C 281.03 191.00 276.33 190.86 272.33 188.67 C 269.88 187.29 267.09 186.71 264.64 185.34 C 261.75 183.91 259.51 181.23 256.23 180.65 C 256.12 180.24 255.90 179.43 255.79 179.02 Z" />
<path fill="#ffffff" opacity="1.00" d=" M 361.00 206.00 C 373.60 206.10 386.21 205.81 398.80 206.13 C 402.20 207.76 406.06 206.35 409.55 207.51 C 411.89 208.33 414.40 207.79 416.81 208.14 C 421.42 209.38 426.08 210.44 430.80 211.15 C 437.14 213.43 443.58 217.12 446.73 223.35 C 447.94 228.10 446.60 233.58 442.42 236.47 C 434.84 244.34 423.73 246.49 413.78 249.81 C 408.18 249.19 404.64 254.29 399.45 255.42 C 392.87 260.34 384.06 259.43 376.59 257.41 C 372.60 256.80 369.14 254.51 365.19 253.84 C 353.70 249.26 343.31 242.39 332.38 236.64 C 327.44 232.29 320.77 230.52 315.72 226.27 C 310.62 222.47 304.56 220.24 299.38 216.58 C 295.69 215.00 292.28 212.77 288.40 211.69 C 287.95 211.28 287.06 210.47 286.61 210.06 C 288.69 209.97 290.78 209.90 292.86 210.05 C 301.03 213.28 309.20 216.60 317.54 219.39 C 319.36 220.84 321.84 221.03 323.42 222.82 C 328.58 223.16 332.66 226.90 337.42 228.59 C 342.97 230.44 348.14 233.17 353.45 235.55 C 356.31 236.02 358.83 237.42 361.42 238.66 C 366.50 239.49 371.17 241.81 376.21 242.83 C 379.87 242.92 383.30 244.48 387.01 244.04 C 391.42 244.58 395.23 241.78 399.59 241.69 C 403.05 239.61 407.19 238.92 410.41 236.41 C 415.47 233.84 419.99 230.01 425.78 229.14 C 424.72 229.93 423.62 230.74 423.02 231.97 C 421.82 234.20 418.90 234.71 417.78 237.08 C 419.56 237.21 421.14 236.56 422.47 235.41 C 425.70 234.22 428.61 232.32 431.62 230.66 C 432.80 229.76 434.45 228.83 434.07 227.09 C 433.24 224.03 430.21 222.74 427.69 221.31 C 419.24 217.72 410.43 214.65 401.24 213.82 C 395.14 212.34 388.86 211.78 382.80 210.16 C 375.43 210.21 368.45 206.99 361.00 208.01 C 361.00 207.50 361.00 206.50 361.00 206.00 Z" />
<path fill="#ffffff" opacity="1.00" d=" M 262.87 255.86 C 279.77 253.15 296.95 254.21 314.01 253.98 C 316.53 254.00 319.09 253.83 321.57 254.43 C 325.77 255.58 330.22 254.42 334.43 255.59 C 344.72 256.77 355.11 257.45 365.26 259.73 C 368.31 260.55 372.24 258.82 374.40 261.79 C 373.28 262.13 372.16 262.41 371.02 262.64 C 365.04 261.25 358.81 262.83 352.88 261.10 C 336.59 260.84 320.28 261.11 303.98 260.98 C 298.97 260.67 294.14 262.35 289.12 262.13 C 284.11 263.45 278.87 262.58 273.85 263.85 C 258.52 264.88 243.79 269.63 228.55 271.51 C 220.78 273.39 212.88 274.88 205.25 277.30 C 193.38 282.62 180.84 286.67 169.98 294.00 C 160.06 299.49 150.85 306.07 141.85 312.95 C 168.14 313.07 194.44 312.96 220.73 313.00 C 219.34 322.64 217.93 332.28 216.24 341.87 C 193.82 341.73 171.41 341.87 149.00 341.80 C 146.16 341.78 143.32 341.79 140.49 342.05 C 139.89 346.75 139.09 351.42 138.45 356.11 C 163.67 356.13 188.88 356.12 214.10 356.12 C 212.75 365.72 211.09 375.27 209.75 384.87 C 184.49 385.03 159.22 384.89 133.96 384.95 C 131.76 399.26 129.41 413.54 127.40 427.88 C 118.93 428.14 110.45 427.93 101.97 428.00 C 106.62 397.93 111.20 367.85 115.94 337.80 C 112.49 340.44 110.18 344.16 107.58 347.57 C 102.53 353.36 98.81 360.14 94.39 366.40 C 91.34 370.51 89.27 375.20 86.48 379.47 C 82.40 389.22 77.51 398.75 75.11 409.10 C 74.88 411.64 74.23 414.11 73.59 416.58 C 72.44 420.17 73.47 424.00 72.64 427.64 C 72.16 429.57 71.70 431.60 72.31 433.57 C 73.59 437.71 72.41 442.14 73.66 446.29 C 74.68 450.29 75.01 454.49 76.68 458.31 C 79.83 466.06 83.22 473.88 88.71 480.29 C 92.69 486.29 98.79 490.29 104.41 494.59 C 111.32 499.07 119.14 501.92 127.10 503.90 C 136.79 506.99 147.02 505.76 157.02 506.02 C 161.60 506.30 166.05 505.03 170.58 504.59 C 181.47 503.17 191.80 499.14 202.41 496.64 C 202.22 496.31 201.85 495.65 201.66 495.33 C 195.25 492.57 188.19 491.71 181.63 489.37 C 178.25 488.18 174.75 487.37 171.22 486.78 C 168.30 486.04 164.51 485.49 163.56 482.11 C 169.77 481.64 176.10 482.72 182.20 481.20 C 185.91 480.79 189.73 480.77 193.39 481.62 C 199.95 482.79 206.76 481.02 213.26 482.76 C 215.81 483.18 218.41 482.89 220.98 483.04 C 238.39 485.41 256.04 487.91 272.40 494.68 C 277.62 497.06 283.19 498.95 287.51 502.90 C 286.83 503.15 285.46 503.65 284.78 503.90 C 276.49 504.51 268.06 503.07 259.88 504.88 C 235.83 508.35 213.08 517.04 189.88 523.88 C 183.62 525.95 177.04 526.79 170.77 528.80 C 166.47 529.02 162.12 529.46 158.06 531.00 L 127.84 531.00 C 122.76 528.80 117.07 529.06 111.92 527.07 C 103.53 523.92 94.80 520.99 87.79 515.21 C 79.84 510.35 73.53 503.28 68.38 495.61 C 59.82 483.69 54.94 469.44 52.99 454.99 C 51.22 447.43 52.28 439.63 51.98 431.95 C 53.85 411.85 59.55 391.97 69.21 374.19 C 72.69 366.41 78.10 359.73 82.43 352.42 C 86.55 347.52 90.06 342.11 94.71 337.67 C 97.95 332.99 102.33 329.32 106.25 325.25 C 110.50 320.43 115.89 316.91 120.34 312.31 C 130.48 304.69 140.57 296.91 151.67 290.69 C 159.63 286.60 167.37 282.06 175.66 278.65 C 189.99 272.17 204.98 267.24 220.11 263.11 C 228.77 261.71 237.19 258.91 245.94 257.95 C 251.59 257.24 257.17 256.02 262.87 255.86 Z" />
<path fill="#ffffff" opacity="1.00" d=" M 232.61 313.12 C 241.09 312.85 249.58 313.06 258.06 313.01 C 252.19 351.30 246.10 389.56 240.41 427.87 C 231.93 428.16 223.45 427.92 214.97 428.00 C 220.80 389.70 226.93 351.44 232.61 313.12 Z" />
<path fill="#ffffff" opacity="1.00" d=" M 270.61 313.13 C 304.30 312.81 338.01 313.11 371.71 312.98 C 370.39 322.63 368.88 332.25 367.26 341.85 C 343.83 341.75 320.40 341.86 296.98 341.80 C 295.14 341.78 293.30 341.84 291.48 342.06 C 290.92 346.76 290.04 351.42 289.47 356.13 C 314.68 356.12 339.89 356.12 365.10 356.13 C 361.48 380.11 357.75 404.07 354.00 428.03 C 320.32 427.97 286.65 428.02 252.97 428.00 C 254.42 418.42 255.96 408.85 257.37 399.26 C 279.58 399.23 301.79 399.25 324.00 399.25 C 327.11 399.20 330.25 399.47 333.33 398.92 C 333.78 394.24 334.72 389.63 335.32 384.98 C 310.10 384.89 284.88 384.96 259.66 384.95 C 263.18 360.99 267.17 337.10 270.61 313.13 Z" />
<path fill="#ffffff" opacity="1.00" d=" M 383.61 313.13 C 392.09 312.84 400.58 313.07 409.06 313.01 C 406.87 327.38 404.53 341.73 402.47 356.13 C 419.27 356.06 436.07 356.23 452.87 356.04 C 454.93 341.72 457.39 327.45 459.37 313.12 C 467.81 312.84 476.26 313.10 484.71 312.98 C 478.98 351.35 472.94 389.69 467.00 428.03 C 458.58 427.95 450.17 428.04 441.76 427.98 C 443.86 413.64 446.20 399.33 448.32 384.98 C 431.53 384.90 414.74 384.94 397.94 384.96 C 395.77 399.27 393.40 413.55 391.40 427.88 C 382.93 428.15 374.45 427.92 365.97 428.00 C 371.80 389.70 377.93 351.45 383.61 313.13 Z" />
<path fill="#ffffff" opacity="1.00" d=" M 496.61 313.13 C 505.09 312.84 513.58 313.07 522.06 313.01 C 516.19 351.30 510.10 389.56 504.41 427.88 C 495.93 428.16 487.45 427.92 478.97 428.00 C 484.80 389.70 490.93 351.45 496.61 313.13 Z" />
<path fill="#ffffff" opacity="1.00" d=" M 533.61 313.13 C 567.31 312.82 601.01 313.11 634.71 312.98 C 628.98 351.35 622.94 389.68 617.00 428.03 C 608.58 427.96 600.17 428.03 591.75 427.99 C 593.85 413.64 596.20 399.33 598.32 384.98 C 581.53 384.90 564.74 384.94 547.95 384.96 C 545.77 399.26 543.40 413.54 541.41 427.87 C 532.93 428.16 524.45 427.92 515.97 428.00 C 521.80 389.70 527.93 351.44 533.61 313.13 M 554.48 342.06 C 553.92 346.76 553.04 351.42 552.47 356.13 C 569.27 356.05 586.07 356.24 602.87 356.04 C 603.52 351.30 604.32 346.58 605.01 341.85 C 588.17 341.93 571.31 341.51 554.48 342.06 Z" />
<path fill="#ffffff" opacity="1.00" d=" M 646.61 313.13 C 680.30 312.81 714.01 313.11 747.71 312.98 C 744.27 336.97 740.26 360.89 736.75 384.87 C 730.45 385.03 724.14 384.87 717.85 384.98 C 721.80 399.35 726.01 413.65 730.03 428.00 C 721.53 427.90 713.03 428.21 704.54 427.83 C 700.83 413.54 696.33 399.45 692.63 385.15 C 682.08 384.70 671.50 385.04 660.95 384.96 C 658.77 399.27 656.40 413.55 654.41 427.88 C 645.93 428.16 637.45 427.92 628.97 428.00 C 634.80 389.70 640.93 351.45 646.61 313.13 M 667.48 342.06 C 666.92 346.77 666.04 351.42 665.47 356.13 C 682.27 356.06 699.07 356.24 715.87 356.04 C 716.52 351.30 717.32 346.58 718.01 341.85 C 701.17 341.93 684.31 341.51 667.48 342.06 Z" />
<path fill="#ffffff" opacity="1.00" d=" M 759.61 313.12 C 768.09 312.85 776.58 313.05 785.06 313.02 C 783.68 322.62 781.85 332.19 780.78 341.83 C 787.47 351.42 794.52 360.76 801.25 370.32 C 811.32 360.97 821.21 351.36 830.92 341.64 C 832.65 332.18 834.00 322.64 835.37 313.11 C 843.81 312.84 852.26 313.09 860.71 312.98 C 858.66 327.29 856.45 341.58 854.10 355.84 C 839.73 370.78 824.11 384.64 809.63 399.50 C 807.99 408.97 806.69 418.50 805.15 427.99 C 796.72 428.00 788.29 428.02 779.86 427.98 C 781.17 418.37 783.05 408.82 784.11 399.19 C 774.15 385.10 763.91 371.20 753.81 357.20 C 752.72 356.06 753.40 354.45 753.52 353.12 C 755.56 339.79 757.76 326.48 759.61 313.12 Z" />
</g>
</svg>
